 http://imageshack.us/m/222/5359/70308433.jpg

Country.......: USA
Genre.........: Thriller, Action, Adventure
Date release..: 06.09.2005 [World]
Director......: Marcus Adams
Writers.......: Travis Spangler, Tyler Spangler
Duration......: 91 min.
More..........: http://www.imdb.com/title/tt0457090
Trailer.......: http://www.imdb.com/video/screenplay/vi2247491865
Trailer.......:

Pilot :
Chechen rebels take over a Russian nuclear plant and it's up to a mysterious agent(Snipes) to stop them. 

Cats :
Wesley Snipes   	 ...  	Painter
William Hope 	... 	Johnathan Tensor
Emma Samms 	... 	Amanda Jacks
Anthony Warren 	... 	Capt. Naish
Peter Youngblood Hills 	... 	Hargreaves
Ryan McCluskey 	... 	Rodgers
Warren Derosa 	... 	Orin
Christiaan Haig 	... 	Hightop
Dan Badarau 	... 	Gen. Egor Zaysan (as Dan Badaru)
Serge Soric 	... 	Andrey Flintov
Gelu Nitu 	... 	Minister Viktor Ivanov
Matt Salinger 	... 	General Parent (as Matthew Salinger)
John Guerrasio 	... 	Secretary Cummings
Ian Ashpitel 	... 	Major Devro
Peter Swander 	... 	Sergeant Hill (as Peter Bradley Swander) 

Data Technical :
!!! SAMPLE !!!
Audio.....: English
Subtitles.: English .srt, Portuguese .srt, Swedish .srt, Dutch .srt, Czech .srt, Polish .txt
Format                           : AVI
Format/Info                      : Audio Video Interleave
File size                        : 701 MiB
Duration                         : 1h 31mn
Overall bit rate                 : 1 073 Kbps
Writing application              : VirtualDubMod 1.5.10.1 (build 2366/release)
Writing library                  : VirtualDubMod build 2366/release
Video
ID                               : 0
Format                           : MPEG-4 Visual
Format profile                   : Advanced Simple@L5
Format settings, BVOP            : Yes
Format settings, QPel            : No
Format settings, GMC             : No warppoints
Format settings, Matrix          : Default (H.263)
Codec ID                         : DX50
Codec ID/Hint                    : DivX 5
Duration                         : 1h 31mn
Bit rate                         : 935 Kbps
Width                            : 524 pixels
Height                           : 274 pixels
Display aspect ratio             : 1.912
Frame rate                       : 25.000 fps
Color space                      : YUV
Chroma subsampling               : 4:2:0
Bit depth                        : 8 bits
Scan type                        : Progressive
Bits/(Pixel*Frame)               : 0.260
Stream size                      : 611 MiB (87%)
Writing library                  : XviD 0039 build=2005.10.08 (UTC 2005-10-08)
Audio
ID                               : 1
Format                           : MPEG Audio
Format version                   : Version 1
Format profile                   : Layer 3
Codec ID                         : 55
Codec ID/Hint                    : MP3
Duration                         : 1h 31mn
Bit rate mode                    : Constant
Bit rate                         : 128 Kbps
Channel(s)                       : 2 channels
Sampling rate                    : 48.0 KHz
Video delay                      : 984ms
Stream size                      : 83.7 MiB (12%)
Alignment                        : Split accross interleaves
Interleave, duration             : 40 ms (1.00 video frame)
Interleave, preload duration     : 504 ms
Writing library                  : LAME3.90.3

Screen : 
http://imageshack.us/m/98/1796/themarksman2005s1.jpg 
http://imageshack.us/m/90/9463/themarksman2005s2.jpg 
http://imageshack.us/m/109/1838/themarksman2005s3.jpg 
http://imageshack.us/m/15/1166/themarksman2005s4.jpg 
http://imageshack.us/m/17/9210/themarksman2005s5.jpg